<?xml version="1.0" encoding="utf-8"?>
<!-- Generator: Adobe Illustrator 24.0.1, SVG Export Plug-In . SVG Version: 6.00 Build 0)  -->
<svg version="1.1" id="Layer_1" xmlns="http://www.w3.org/2000/svg" xmlns:xlink="http://www.w3.org/1999/xlink" x="0px" y="0px"
	 viewBox="0 0 355.2 112.2" style="enable-background:new 0 0 355.2 112.2;" xml:space="preserve">
<style type="text/css">
	.st0{fill:#035081;}
	.st1{fill-rule:evenodd;clip-rule:evenodd;fill:#1985BB;}
	.st2{fill-rule:evenodd;clip-rule:evenodd;fill:#02426E;enable-background:new    ;}
	.st3{fill-rule:evenodd;clip-rule:evenodd;fill:#FF6600;}
	.st4{fill-rule:evenodd;clip-rule:evenodd;fill:#C05431;}
	.st5{fill-rule:evenodd;clip-rule:evenodd;fill:#F18120;}
	.st6{fill:#02426E;}
</style>
<title>bestonline-logo</title>
<path class="st0" d="M17.7,48.5c4.8,0,8.6,3.9,8.6,8.7s-3.9,8.6-8.7,8.6c-3.5,0-6.6-2.1-8-5.3v-6.6C11.1,50.6,14.2,48.5,17.7,48.5z
	 M53.5,48.5c1.6,0,3.1,0.5,4.3,1.5c1.1,1,1.8,2.5,1.7,4.1H47.3c0.2-1.6,0.9-3.1,2.1-4.1C50.5,49,52,48.5,53.5,48.5L53.5,48.5z
	 M87.3,40.5c-2.4-0.1-4.8,0.4-7,1.3c-1.8,0.8-3.3,2-4.4,3.7c-1,1.5-1.5,3.3-1.5,5.1c-0.1,1.9,0.5,3.8,1.6,5.3c1,1.3,2.4,2.2,3.9,2.9
	c1.8,0.7,3.7,1.3,5.7,1.7c1.6,0.4,3.1,0.9,4.6,1.5c0.9,0.3,1.4,1.2,1.4,2.1c0,0.8-0.4,1.5-1,1.9c-0.8,0.5-1.8,0.8-2.8,0.7
	c-1.2,0.1-2.4-0.3-3.4-1C83.6,65,83,63.9,83,62.8h-9.6c0.1,2.1,0.9,4,2.1,5.7c1.3,1.8,3.1,3.1,5.1,4c2.3,1,4.9,1.5,7.4,1.5
	c2.3,0,4.6-0.4,6.8-1.3c1.8-0.7,3.3-2,4.5-3.5c1-1.5,1.6-3.3,1.6-5.1c0.1-1.9-0.5-3.8-1.7-5.4c-1-1.3-2.4-2.3-3.9-2.9
	c-1.9-0.7-3.8-1.3-5.7-1.8c-1.5-0.3-3.1-0.8-4.5-1.4c-0.9-0.3-1.4-1.2-1.4-2.1c0-0.7,0.3-1.4,0.9-1.8c0.8-0.5,1.7-0.7,2.6-0.7
	c1.2-0.1,2.3,0.3,3.2,1c0.8,0.7,1.3,1.6,1.4,2.7h9c-0.2-3.1-1.6-6-3.9-8C94.4,41.5,91.2,40.5,87.3,40.5L87.3,40.5z M53.6,40.5
	c-2.9-0.1-5.8,0.6-8.3,2c-2.4,1.4-4.4,3.4-5.7,5.8c-1.4,2.7-2.1,5.8-2,8.9c-0.1,3.1,0.6,6.1,2,8.9c1.3,2.4,3.3,4.5,5.7,5.8
	c2.5,1.4,5.4,2.1,8.3,2c2.4,0,4.8-0.5,7-1.5c2-0.9,3.8-2.3,5.2-4c1.4-1.7,2.3-3.7,2.9-5.8H58.3c-0.8,2-2.8,3.3-5,3.2
	c-1.5,0-3-0.5-4.1-1.6c-1.2-1.2-1.9-2.9-1.9-4.6h22c0.1-1,0.2-1.9,0.2-2.9c0.1-3-0.6-5.9-2-8.6c-1.3-2.4-3.2-4.3-5.6-5.7
	C59.3,41.1,56.5,40.4,53.6,40.5L53.6,40.5z M108.8,33V41H105v8.3h3.9v12.9c0,4,1,6.9,3,8.7c2,1.8,4.7,2.7,8.2,2.7h4.9v-8.5h-3.5
	c-0.8,0.1-1.6-0.2-2.3-0.6c-0.5-0.6-0.8-1.3-0.7-2.1V49.3h6.4V41h-6.4V33L108.8,33z M0,28.9v45.9h9.8V73c2.5,1.3,5.2,1.9,8,1.9
	c9.8-0.2,17.5-8.4,17.3-18.2c-0.2-9.5-7.8-17.1-17.3-17.3c-2.8,0-5.5,0.6-8,1.9V28.9H0z"/>
<path class="st0" d="M338.6,49.1c1.6-0.1,3.2,0.5,4.5,1.6c1.2,1.1,1.9,2.6,1.8,4.3h-12.7c0.2-1.7,0.9-3.2,2.2-4.3
	C335.5,49.6,337,49,338.6,49.1z M265.4,41.2v34h10.1v-34L265.4,41.2z M303.6,40.8c-2,0-4,0.4-5.9,1.3c-1.7,0.8-3.1,2-4.1,3.6v-4.5
	h-10.1v34h10.1V56.8c-0.1-1.9,0.5-3.8,1.7-5.3c2.6-2.5,6.7-2.5,9.3,0c1.2,1.5,1.8,3.4,1.7,5.3v18.5h10.1V55.3
	c0-4.5-1.2-8.1-3.5-10.6C310.5,42.1,307.1,40.7,303.6,40.8z M226.9,40.8c-2,0-4,0.4-5.9,1.3c-1.7,0.8-3.1,2-4.1,3.6v-4.5h-10.2v34
	h10.1V56.8c-0.1-1.9,0.5-3.8,1.7-5.3c2.6-2.5,6.7-2.5,9.3,0c1.2,1.5,1.8,3.4,1.7,5.3v18.5h10.1V55.3c0-4.5-1.2-8.1-3.5-10.6
	C233.8,42.1,230.4,40.7,226.9,40.8z M338.8,40.7c-3.1-0.1-6.1,0.7-8.8,2.1c-2.5,1.4-4.6,3.5-5.9,6.1c-1.5,2.9-2.2,6-2.1,9.3
	c-0.1,3.2,0.7,6.4,2.1,9.3c1.3,2.6,3.4,4.7,5.9,6.1c2.6,1.5,5.6,2.2,8.6,2.1c2.5,0,5-0.5,7.3-1.5c2.1-1,4-2.4,5.4-4.2
	c1.4-1.8,2.5-3.8,3-6h-10.8c-0.9,2.1-3,3.5-5.3,3.3c-1.6,0-3.1-0.6-4.3-1.7c-1.3-1.3-2-3-2-4.8h23c0.1-1,0.2-2,0.2-3
	c0.1-3.1-0.6-6.2-2.1-9c-1.3-2.5-3.4-4.5-5.8-5.9C344.6,41.4,341.7,40.7,338.8,40.7L338.8,40.7z M247.3,30.1v45.1h10.1V30.1H247.3z
	 M270.5,26.4c-1.6-0.1-3.2,0.5-4.4,1.6c-2.2,2.2-2.2,5.8,0,8c0,0,0,0,0,0c1.2,1.1,2.7,1.7,4.4,1.6c1.6,0.1,3.1-0.5,4.3-1.6
	c1.1-1,1.7-2.5,1.7-4c0-1.5-0.6-3-1.7-4C273.6,26.9,272,26.3,270.5,26.4z"/>
<g>
	<path id="Color_Fill_3" class="st1" d="M191.8,58.5c-0.3,0.6-8.5,9-8.5,9l-8.8-7.7l0.2-6c3.1,1.2,6.4,1.2,9.4-0.2
		c4.3-2,6.1-7.2,4.1-11.5l0-0.1c-0.4-0.9-1.1-1.8-1.8-2.5c-0.6-0.6-1.4-1.1-2.2-1.4c-2.9-1.2-6.4,0.9-7.5,3.7h0
		c0.3-2.2,0.4-4.4,1-6.7l0,0l0.1-0.4l0.6-1.9c0,0,12.2,3.2,13,8.6C192.2,47,192,57.9,191.8,58.5z"/>
	<path id="Color_Fill_2" class="st2" d="M187.4,19c-6.7,0.9-12.4,3.2-12.6,3.3l0,0l0,0l0,0c-10.9,4.3-25,14.4-24.6,37.9
		c-9.3-11.1,1.4-32,17.2-38.1c-15.6,1.3-27.5,14.3-27.6,30c0,4,0.8,7.9,2.4,11.6h-0.1c4,10.3,27.1,37.5,27.1,37.5
		s24.9-27.1,28.6-37.5h-0.1C203.9,49,197.6,32,183.2,25c-3.1,3.2-4.7,6.8-5.6,9.8c1.2,0.3,3,0.7,4.1,1.2c1.6,0.7,3.1,1.7,4.4,2.9
		c0.8,0.7,1.3,1.5,1.8,2.4c0.3,0.6,0.6,1.2,0.8,1.9c1,3.4,0.8,6.9,0.7,7.8c-0.6,5.6-3.2,10.8-7.5,14.4c-3.4-3.8-5.7-7.7-7.4-11.6
		l0,0c-2.4-5.6-3.9-12.5-1.1-19.1l0,0l0,0c0.5-1.4,1.2-2.8,1.9-4.1c5.7-10.7,11.9-11.6,11.9-11.6l-0.1,0.1
		C187.3,19.1,187.4,19.1,187.4,19z M177.6,35.3L177.6,35.3L177.6,35.3z"/>
	<path id="Color_Fill_7" class="st2" d="M211.3,8.2c0,0-10.6,0-21.5,0.1c0,0,5.2,2.6,7,6.6c1.6,3.6,0,8.7,0,8.7L211.3,8.2z"/>
	<path id="Color_Fill_11" class="st3" d="M205.5,8.5l-13,0.1c0,0,4.1,2.8,5,5.3C202,10.8,205.5,8.5,205.5,8.5z"/>
	<path class="st4" d="M177.7,34.9l-0.1,0.4C177.6,35.2,177.6,35,177.7,34.9L177.7,34.9z"/>
	<path id="Color_Fill_6" class="st2" d="M169.6,96.2c-12.3,0-22.4,2.1-22.4,4.6c0,2.6,10,4.6,22.4,4.6c12.3,0,22.4-2.1,22.4-4.6
		S181.9,96.2,169.6,96.2"/>
	<path id="Color_Fill_5" class="st5" d="M187.3,19.1c-10.4,1.9-20.6,7.6-27.1,15.9l0,0l-0.1,0.1l-0.1,0.1l0,0
		c-5.8,7.6-8.6,17-8,26.6c1.3,10.6,4.9,20.9,10.5,30c1.9,3.1,4.3,6.7,6.6,9.4c3.8-4.1,7.4-8.4,11.1-12.7c3.4-4.1,5.5-6.5,9.2-11.5
		c-9-4.6-16.8-12.4-19.8-22.1c-2.1-6.7-1.8-12.1-0.7-16.2C171.3,29.8,178.9,22.9,187.3,19.1z"/>
	<path id="Color_Fill_4" class="st3" d="M160.2,34.9c-3.1,20,4.7,40.4,20.1,53.5c-3.7,4.3-7.3,8.7-11.1,12.7
		c-2.3-2.7-4.7-6.4-6.6-9.4c-5.6-9.2-9.1-19.4-10.5-30C151.4,52.1,154.3,42.5,160.2,34.9z"/>
</g>
<g>
	<path class="st6" d="M219.2,87.3c0.8,0.4,1.4,1.1,1.8,1.9c0.4,0.9,0.7,1.9,0.7,3.1v7.8h-3.4v-7.3c0-1.1-0.3-1.9-0.8-2.4
		c-0.5-0.6-1.2-0.9-2.2-0.9c-0.9,0-1.7,0.3-2.2,0.9c-0.5,0.6-0.8,1.4-0.8,2.4v7.3H209V82.4h3.4v6.1c0.4-0.6,1-1,1.7-1.4
		s1.5-0.5,2.4-0.5C217.5,86.6,218.4,86.9,219.2,87.3z"/>
	<path class="st6" d="M233.2,99.5c-1-0.6-1.8-1.4-2.4-2.4c-0.6-1-0.9-2.2-0.9-3.6c0-1.4,0.3-2.6,0.9-3.6c0.6-1,1.4-1.8,2.5-2.4
		c1-0.6,2.2-0.9,3.5-0.9c1.3,0,2.4,0.3,3.5,0.9c1,0.6,1.9,1.4,2.5,2.4c0.6,1,0.9,2.2,0.9,3.6c0,1.4-0.3,2.6-0.9,3.6
		c-0.6,1-1.4,1.8-2.5,2.4c-1,0.6-2.2,0.9-3.5,0.9C235.4,100.4,234.2,100.1,233.2,99.5z M238.4,97c0.5-0.3,1-0.7,1.3-1.3
		c0.3-0.6,0.5-1.3,0.5-2.2c0-1.3-0.3-2.2-1-2.9c-0.7-0.7-1.5-1-2.4-1s-1.8,0.3-2.4,1c-0.6,0.7-1,1.7-1,2.9c0,1.3,0.3,2.2,0.9,2.9
		c0.6,0.7,1.4,1,2.4,1C237.3,97.4,237.8,97.3,238.4,97z"/>
	<path class="st6" d="M255.3,82.4v17.8H252V82.4H255.3z"/>
	<path class="st6" d="M264.8,84.7c-0.4-0.4-0.6-0.8-0.6-1.4c0-0.6,0.2-1,0.6-1.4s0.9-0.6,1.5-0.6c0.6,0,1.1,0.2,1.5,0.6
		c0.4,0.4,0.6,0.8,0.6,1.4c0,0.6-0.2,1-0.6,1.4c-0.4,0.4-0.9,0.6-1.5,0.6C265.7,85.3,265.2,85.1,264.8,84.7z M267.9,86.8v13.3h-3.4
		V86.8H267.9z"/>
	<path class="st6" d="M277.1,89.9c0.5-1,1.3-1.8,2.2-2.4c0.9-0.6,2-0.8,3.1-0.8c0.9,0,1.7,0.2,2.5,0.6c0.8,0.4,1.4,0.9,1.9,1.5v-6.3
		h3.4v17.8h-3.4v-2c-0.4,0.7-1,1.2-1.8,1.6c-0.8,0.4-1.6,0.6-2.6,0.6c-1.1,0-2.1-0.3-3.1-0.9c-0.9-0.6-1.7-1.4-2.2-2.4
		s-0.8-2.3-0.8-3.6C276.3,92.1,276.5,90.9,277.1,89.9z M286.2,91.4c-0.3-0.6-0.8-1-1.3-1.3c-0.5-0.3-1.1-0.5-1.8-0.5
		s-1.2,0.2-1.7,0.5c-0.5,0.3-1,0.7-1.3,1.3c-0.3,0.6-0.5,1.3-0.5,2.1c0,0.8,0.2,1.5,0.5,2.1c0.3,0.6,0.8,1.1,1.3,1.4
		s1.1,0.5,1.7,0.5c0.6,0,1.2-0.2,1.8-0.5c0.5-0.3,1-0.8,1.3-1.3c0.3-0.6,0.5-1.3,0.5-2.1C286.7,92.7,286.6,92,286.2,91.4z"/>
	<path class="st6" d="M299.2,89.9c0.5-1,1.3-1.8,2.2-2.4c0.9-0.6,1.9-0.8,3.1-0.8c1,0,1.9,0.2,2.6,0.6c0.7,0.4,1.3,0.9,1.8,1.5v-1.9
		h3.4v13.3h-3.4v-1.9c-0.4,0.6-1,1.1-1.8,1.5c-0.8,0.4-1.6,0.6-2.6,0.6c-1.1,0-2.1-0.3-3.1-0.9c-0.9-0.6-1.6-1.4-2.2-2.4
		s-0.8-2.3-0.8-3.6C298.4,92.1,298.7,90.9,299.2,89.9z M308.4,91.4c-0.3-0.6-0.8-1-1.3-1.3c-0.5-0.3-1.1-0.5-1.8-0.5
		s-1.2,0.2-1.7,0.5c-0.5,0.3-1,0.7-1.3,1.3c-0.3,0.6-0.5,1.3-0.5,2.1c0,0.8,0.2,1.5,0.5,2.1c0.3,0.6,0.8,1.1,1.3,1.4
		s1.1,0.5,1.7,0.5c0.6,0,1.2-0.2,1.8-0.5c0.5-0.3,1-0.8,1.3-1.3c0.3-0.6,0.5-1.3,0.5-2.1C308.9,92.7,308.7,92,308.4,91.4z"/>
	<path class="st6" d="M334.2,86.8l-8.2,19.6h-3.6l2.9-6.6l-5.3-13h3.8l3.4,9.3l3.5-9.3H334.2z"/>
	<path class="st6" d="M344.1,99.8c-0.9-0.4-1.5-0.9-2.1-1.6s-0.8-1.4-0.8-2.2h3.4c0.1,0.5,0.3,0.9,0.8,1.3c0.4,0.3,1,0.5,1.6,0.5
		c0.6,0,1.1-0.1,1.5-0.4c0.4-0.3,0.5-0.6,0.5-1c0-0.4-0.2-0.8-0.7-1c-0.4-0.2-1.1-0.5-2.1-0.7c-1-0.2-1.8-0.5-2.4-0.7
		c-0.6-0.3-1.2-0.6-1.6-1.2c-0.5-0.5-0.7-1.2-0.7-2.1c0-0.7,0.2-1.4,0.6-2s1-1.1,1.8-1.4c0.8-0.4,1.7-0.5,2.8-0.5
		c1.6,0,2.8,0.4,3.8,1.2s1.5,1.9,1.6,3.2h-3.2c0-0.5-0.3-0.9-0.7-1.3c-0.4-0.3-0.9-0.5-1.6-0.5c-0.6,0-1.1,0.1-1.4,0.3
		c-0.3,0.2-0.5,0.5-0.5,0.9c0,0.4,0.2,0.8,0.7,1c0.4,0.2,1.1,0.5,2.1,0.7c1,0.2,1.8,0.5,2.4,0.7s1.2,0.7,1.6,1.2s0.7,1.2,0.7,2.1
		c0,0.8-0.2,1.5-0.6,2.1c-0.4,0.6-1,1.1-1.8,1.4s-1.7,0.5-2.8,0.5C345.9,100.4,344.9,100.2,344.1,99.8z"/>
</g>
</svg>
